<svg width="100" height="100" viewBox="0 0 100 100" fill="none" xmlns="http://www.w3.org/2000/svg">
<path d="M29.3711 49.5469L33.6563 44.9961L35.9316 47.1445C50.3125 60.6914 64.7422 68.9336 81.7227 73.1348C84.0137 66.8848 84.2168 60.0059 82.2383 53.2949C79.6133 44.3906 73.5 36.6328 64.5645 30.8613C56.7031 25.7832 49.6035 24.5937 42.0859 23.334C37.9609 22.6426 33.6875 21.9277 29.0293 20.5156C20.4785 17.9219 11.5117 10.2148 11.4219 10.1387L6.52344 5.88867L6.25 12.3691C6.23047 12.8691 5.77735 24.7852 9.02735 41.2305C12.4609 58.6133 18.8398 71.6699 27.9863 80.0254C35.4082 86.8008 45.0996 90.5527 54.7305 90.5527C56.5466 90.5539 58.3603 90.4187 60.1563 90.1484C68.3047 88.9141 75.084 84.8223 78.9063 78.8691C61.4258 74.3223 46.4941 65.6758 31.6406 51.6895L29.3711 49.5469Z" fill="#0A4D3C"/>
<path d="M91.2949 75.0371C88.0078 74.5312 84.8242 73.8965 81.7246 73.1289C81.0866 74.8683 80.2937 76.5469 79.3555 78.1445C79.2109 78.3887 79.0605 78.6309 78.9082 78.8691C82.6775 79.8452 86.4944 80.6275 90.3437 81.2129L93.4336 81.6895L94.3828 75.5117L91.2949 75.0371Z" fill="#0A4D3C"/>
</svg>
