<svg xmlns="http://www.w3.org/2000/svg" version="1.1" xmlns:xlink="http://www.w3.org/1999/xlink" xmlns:svgjs="http://svgjs.com/svgjs" width="512" height="512" x="0" y="0" viewBox="0 0 512 512" style="enable-background:new 0 0 512 512" xml:space="preserve" class=""><g><path xmlns="http://www.w3.org/2000/svg" d="M492.11621,449.13965l-36.57812-21.94629L442.96875,307.78027a47.95485,47.95485,0,0,0-37.32422-41.832L296,241.58252v-30.269l5.17188-5.1709a36.97238,36.97238,0,0,0,0-52.28516L281.8252,134.51074A39.9189,39.9189,0,0,0,296,104V72a39.97629,39.97629,0,0,0-71.45117-24.66992l-8.87207-4.43653A27.41731,27.41731,0,0,0,176,67.416V86.05859a73.45409,73.45409,0,0,1-21.65723,52.28418A8.00066,8.00066,0,0,0,160,152h24a48.01039,48.01039,0,0,0,40.89062-22.89526,40.34552,40.34552,0,0,0,7.10523,6.86987,39.28325,39.28325,0,0,0-7.8562,7.83887l-26.54,35.38672a68.001,68.001,0,0,0,0,81.5996L200,264.00024v30.7L170.23438,384H24a8.00039,8.00039,0,0,0-8,8v80a8.00039,8.00039,0,0,0,8,8H40a8.00153,8.00153,0,0,0,6.86035-3.88379l21.375-35.626,120.96289,12.73243a48.00593,48.00593,0,0,0,46.70117-23.92188L284.64258,344h92.79883L400,456.792V472a8.00039,8.00039,0,0,0,8,8h80a8.00039,8.00039,0,0,0,8-8V456A8.00153,8.00153,0,0,0,492.11621,449.13965ZM296,180a20.83248,20.83248,0,0,1-6.14258,14.82812l-7.51465,7.51465A8.00235,8.00235,0,0,0,280,208v32H256.94458l-7.635-15.26953,32.68652-45.76074v-.001a32.02,32.02,0,0,0,5.85865-15.79956l2.00268,2.00269A20.83248,20.83248,0,0,1,296,180ZM256,48a24.0384,24.0384,0,0,1,22.62378,16H256a8.00235,8.00235,0,0,0-5.65723,2.34277L236.68652,80H232V72A24.0275,24.0275,0,0,1,256,48Zm-72,88h-7.10645A89.31284,89.31284,0,0,0,192,86.05859V67.416a11.4163,11.4163,0,0,1,16.52148-10.21094l8.84961,4.4248A39.9091,39.9091,0,0,0,216,72v32A32.03667,32.03667,0,0,1,184,136Zm48-40h8a8.00235,8.00235,0,0,0,5.65723-2.34277L259.31348,80H280v24a24,24,0,0,1-48,0Zm-21.59961,92.7998,26.54-35.38671A23.64253,23.64253,0,0,1,255.7666,144a16.23378,16.23378,0,0,1,13.21,25.66895l-35.48633,49.68066a8.00116,8.00116,0,0,0-.6455,8.22851l24,48a8.001,8.001,0,0,0,4.625,4.01172l22.209,7.40235,2.58691,2.58789L283.05566,296H244l-33.59961-44.7998a51.999,51.999,0,0,1,0-62.4004Zm23.19922,120A8.0009,8.0009,0,0,0,240,312h48a8.00022,8.00022,0,0,0,7.15527-4.42188l8-16a8.00157,8.00157,0,0,0-1.498-9.23535l-8-8a8.02088,8.02088,0,0,0-3.127-1.93261L269.67383,265.458l-4.729-9.458h22.17676L344,268.63965V328H248a32.03667,32.03667,0,0,1-32-32V285.33374ZM35.4707,464H32V400H49.44141l6.10717,30.53564Zm186.53614-42.63672A32.01231,32.01231,0,0,1,190.874,437.31055L70.69067,424.65991,65.75854,400H176a8.00026,8.00026,0,0,0,7.58984-5.46973l7.3689-22.10644,45.89941,22.94971ZM244.80859,381.46l-48.73877-24.36938L207.73828,322.085A47.99032,47.99032,0,0,0,248,344h18.21436Zm147.03614-47.0293A8,8,0,0,0,384,328H360V272.19531l42.17383,9.37207a31.96927,31.96927,0,0,1,24.88281,27.88867l12.45313,118.30787-25.89136,15.53491ZM480,464H416v-3.47l32-19.19995,32,19.19922Z" fill="#0a4d3c" data-original="#000000" class=""></path></g></svg>