<svg xmlns="http://www.w3.org/2000/svg" version="1.1" xmlns:xlink="http://www.w3.org/1999/xlink" xmlns:svgjs="http://svgjs.com/svgjs" width="512" height="512" x="0" y="0" viewBox="0 0 512 512" style="enable-background:new 0 0 512 512" xml:space="preserve" class=""><g>
<g xmlns="http://www.w3.org/2000/svg">
	<g>
		<path d="M503.284,241.523c-30.681-1.073-60.701,3.437-88.907,13.074c-0.561-30.125-6.613-59.657-18.053-87.969    c-1.869-4.623-7.125-6.857-11.757-4.99c-17.868,7.219-34.602,16.337-50.073,27.239c-18.572-36.63-42.787-70.01-72.119-99.331    c-3.528-3.526-9.244-3.526-12.769,0.001c-29.345,29.345-53.558,62.72-72.116,99.316c-15.462-10.895-32.189-20.009-50.052-27.225    c-4.627-1.868-9.887,0.366-11.756,4.99c-11.459,28.358-17.514,57.939-18.059,88.115c-27.821-9.561-57.802-14.304-88.907-13.22    c-4.985,0.175-8.884,4.356-8.71,9.34c4.667,133.635,114.858,239.166,247.549,239.166c2.801,0,5.626-0.051,8.446-0.144    c2.827,0.095,5.639,0.144,8.447,0.144c132.679,0,242.882-105.538,247.548-239.166    C512.168,245.879,508.269,241.697,503.284,241.523z M129.143,182.001c25.446,11.455,48.25,27.185,67.891,46.848    c21.086,21.074,37.623,45.703,49.224,73.233c-7.739,19.991-12.816,40.654-15.183,61.733    c-26.621-45.203-67.137-81.123-115.419-102.079C115.36,234.51,119.886,207.755,129.143,182.001z M18.56,259.432    c57.953,0.248,112.867,21.972,155.494,61.724c42.63,39.753,68.133,93.01,72.42,150.81    C127.006,471.404,27.453,378.57,18.56,259.432z M209.806,216.079c-5.663-5.669-11.575-11.027-17.714-16.083    c16.541-33.356,37.993-63.953,63.901-91.137c25.894,27.165,47.344,57.764,63.898,91.151c-6.133,5.051-12.04,10.402-17.699,16.065    c-18.833,18.823-34.31,40.292-46.193,63.998C244.126,256.379,228.65,234.911,209.806,216.079z M255.964,422.209    c-2.348-8.364-5.12-16.544-8.296-24.517c-0.059-1.929-0.089-3.968-0.089-6.204c0-29.597,5.65-58.577,16.791-86.138    c11.67-28.877,28.691-54.616,50.594-76.505c19.65-19.662,42.457-35.391,67.901-46.844c9.235,25.698,13.759,52.392,13.485,79.556    c-25.721,11.127-49.616,26.708-70.719,46.388C291.849,339.446,268.054,378.817,255.964,422.209z M265.527,471.965    c4.288-57.799,29.788-111.056,72.419-150.81c42.631-39.755,97.536-61.479,155.495-61.724    C484.546,378.577,385.005,471.415,265.527,471.965z" fill="#0a4d3c" data-original="#000000" class=""></path>
	</g>
</g>
<g xmlns="http://www.w3.org/2000/svg">
	<g>
		<circle cx="14.088" cy="206.106" r="9.031" fill="#0a4d3c" data-original="#000000" class=""></circle>
	</g>
</g>
<g xmlns="http://www.w3.org/2000/svg">
	<g>
		<circle cx="124.058" cy="105.841" r="9.031" fill="#0a4d3c" data-original="#000000" class=""></circle>
	</g>
</g>
<g xmlns="http://www.w3.org/2000/svg">
	<g>
		<circle cx="255.992" cy="31.002" r="9.031" fill="#0a4d3c" data-original="#000000" class=""></circle>
	</g>
</g>
<g xmlns="http://www.w3.org/2000/svg">
	<g>
		<circle cx="387.949" cy="105.841" r="9.031" fill="#0a4d3c" data-original="#000000" class=""></circle>
	</g>
</g>
<g xmlns="http://www.w3.org/2000/svg">
	<g>
		<circle cx="497.896" cy="206.106" r="9.031" fill="#0a4d3c" data-original="#000000" class=""></circle>
	</g>
</g>
<g xmlns="http://www.w3.org/2000/svg">
</g>
<g xmlns="http://www.w3.org/2000/svg">
</g>
<g xmlns="http://www.w3.org/2000/svg">
</g>
<g xmlns="http://www.w3.org/2000/svg">
</g>
<g xmlns="http://www.w3.org/2000/svg">
</g>
<g xmlns="http://www.w3.org/2000/svg">
</g>
<g xmlns="http://www.w3.org/2000/svg">
</g>
<g xmlns="http://www.w3.org/2000/svg">
</g>
<g xmlns="http://www.w3.org/2000/svg">
</g>
<g xmlns="http://www.w3.org/2000/svg">
</g>
<g xmlns="http://www.w3.org/2000/svg">
</g>
<g xmlns="http://www.w3.org/2000/svg">
</g>
<g xmlns="http://www.w3.org/2000/svg">
</g>
<g xmlns="http://www.w3.org/2000/svg">
</g>
<g xmlns="http://www.w3.org/2000/svg">
</g>
</g></svg>